<?xml version="1.0" encoding="UTF-8" standalone="no"?>
<!-- Created with Inkscape (http://www.inkscape.org/) -->

<svg
   xmlns:dc="http://purl.org/dc/elements/1.1/"
   xmlns:cc="http://creativecommons.org/ns#"
   xmlns:rdf="http://www.w3.org/1999/02/22-rdf-syntax-ns#"
   xmlns:svg="http://www.w3.org/2000/svg"
   xmlns="http://www.w3.org/2000/svg"
   xmlns:xlink="http://www.w3.org/1999/xlink"
   xmlns:sodipodi="http://sodipodi.sourceforge.net/DTD/sodipodi-0.dtd"
   xmlns:inkscape="http://www.inkscape.org/namespaces/inkscape"
   version="1.1"
   width="72"
   height="73.220337"
   viewBox="0 0 72.000001 73.220335"
   id="레이어_1"
   xml:space="preserve"
   inkscape:version="0.48.4 r9939"
   sodipodi:docname="up-arrow.svg"><sodipodi:namedview
     pagecolor="#ffffff"
     bordercolor="#666666"
     borderopacity="1"
     objecttolerance="10"
     gridtolerance="10"
     guidetolerance="10"
     inkscape:pageopacity="0"
     inkscape:pageshadow="2"
     inkscape:window-width="1871"
     inkscape:window-height="1056"
     id="namedview3049"
     showgrid="false"
     fit-margin-top="0"
     fit-margin-left="0"
     fit-margin-right="0"
     fit-margin-bottom="0"
     inkscape:zoom="3.2777778"
     inkscape:cx="36"
     inkscape:cy="37.220319"
     inkscape:window-x="49"
     inkscape:window-y="24"
     inkscape:window-maximized="1"
     inkscape:current-layer="레이어_1" /><metadata
     id="metadata23"><rdf:RDF><cc:Work
         rdf:about=""><dc:format>image/svg+xml</dc:format><dc:type
           rdf:resource="http://purl.org/dc/dcmitype/StillImage" /><dc:title></dc:title></cc:Work></rdf:RDF></metadata><defs
     id="defs21" /><path
     d="m 36,-1.5e-6 c 19.9,0 36,16.3728815 36,36.6101695 0,20.23729 -16.1,36.610171 -36,36.610171 -19.9,0 -36,-16.372881 -36,-36.610171 C 0,16.37288 16.1,-1.5e-6 36,-1.5e-6"
     id="path3"
     style="fill:#f4c300;fill-opacity:1"
     inkscape:connector-curvature="0" /><g
     transform="matrix(1,0,0,-1.0169492,-261.2,465.35594)"
     id="g5"
     style="opacity:0.37000001999999999;fill:#8e7100;fill-opacity:1"><g
       id="g7"
       style="fill:#8e7100;fill-opacity:1"><defs
         id="defs9"><rect
           width="56"
           height="56.400002"
           x="277"
           y="386.39999"
           id="SVGID_1_" /></defs><clipPath
         id="SVGID_2_"><use
           id="use13"
           style="overflow:visible"
           x="0"
           y="0"
           width="595.29999"
           height="841.90002"
           xlink:href="#SVGID_1_" /></clipPath><path
         d="m 304.9,386.4 -27.9,30.7 22.3,-2.1 9.3,27.9 24.3,-24.6 c -1.4,-15.8 -12.9,-28.5 -28,-31.9"
         clip-path="url(#SVGID_2_)"
         id="path15"
         style="fill:#8e7100;fill-opacity:1"
         inkscape:connector-curvature="0" /></g></g><polygon
     points="277,417.1 288.1,417.1 285.7,442.8 297.2,433.1 308.7,442.8 306.3,417.1 317.3,417.1 297.2,400.3 "
     transform="matrix(1,0,0,-1.0169492,-261.2,465.35594)"
     id="polygon17"
     style="fill:#ffffff" /></svg>